# xmcd
#
# Track frame offsets: 
#        150
#        10790
#        24635
#        33312
#        45576
#        60535
#        71719
#        82367
#        92555
#        102067
#        114310
#        124965
#        138734
#        149374
#
# Disc length: 2148 seconds
#
# Revision: 0
# Processed by: cddbd v1.5.1PL0 Copyright (c) Steve Scherf et al.
# Submitted via: ExactAudioCopy v0.95a5
#
DISCID=c208620e
DTITLE=Lonesome Whistle Band - Now That's Bluegrass
DYEAR=1999
DGENRE=Bluegrass
TTITLE0=Bootleg John
TTITLE1=Old Richman Prison
TTITLE2=Stone Walls and Steel Bars
TTITLE3=Riding On The Midnight Train
TTITLE4=I've Just Seen The Rock Of Ages
TTITLE5=Wild Turkey
TTITLE6=Lonesome Without You
TTITLE7=God Gave You To Me
TTITLE8=I'll Remember Your Love In My Prayers
TTITLE9=Sharecropper's Son
TTITLE10=No Mother Or Dad
TTITLE11=Clinch Mountain Backstep
TTITLE12=How Mountain Gals Can Love
TTITLE13=Choo Choo Coming
EXTD=
EXTT0=
EXTT1=
EXTT2=
EXTT3=
EXTT4=
EXTT5=
EXTT6=
EXTT7=
EXTT8=
EXTT9=
EXTT10=
EXTT11=
EXTT12=
EXTT13=
PLAYORDER=
